<?xml version="1.0" standalone="no"?>
<!DOCTYPE svg PUBLIC "-//W3C//DTD SVG 20010904//EN"
 "http://www.w3.org/TR/2001/REC-SVG-20010904/DTD/svg10.dtd">
<svg version="1.0" xmlns="http://www.w3.org/2000/svg"
 width="283.000000pt" height="300.000000pt" viewBox="0 0 283.000000 300.000000"
 preserveAspectRatio="xMidYMid meet">

<g transform="translate(0.000000,300.000000) scale(0.100000,-0.100000)"
fill="#c7191fe7" stroke="none">
<path d="M533 2742 l-533 -247 5 -45 c3 -25 26 -373 50 -775 25 -401 46 -739
48 -750 1 -11 34 50 76 140 148 320 527 1139 693 1495 178 382 200 430 196
429 -2 0 -243 -111 -535 -247z"/>
<path d="M1760 2985 c0 -2 77 -170 171 -372 94 -202 197 -424 229 -493 250
-544 554 -1197 561 -1204 5 -6 9 2 9 20 0 41 88 1426 95 1500 l6 61 -48 21
c-26 11 -248 114 -493 227 -489 228 -530 246 -530 240z"/>
<path d="M1365 2073 c-26 -65 -106 -260 -177 -433 -72 -173 -136 -330 -144
-347 l-13 -33 385 0 c212 0 383 3 381 8 -3 4 -89 212 -192 462 -103 250 -188
456 -190 458 -1 1 -24 -51 -50 -115z"/>
<path d="M755 609 c-38 -93 -71 -174 -73 -179 -3 -8 715 -423 733 -423 9 0
709 397 727 412 4 3 -26 85 -65 181 l-72 175 -590 2 -590 3 -70 -171z"/>
</g>
</svg>
