<?xml version="1.0" standalone="no"?>
<!DOCTYPE svg PUBLIC "-//W3C//DTD SVG 20010904//EN"
 "http://www.w3.org/TR/2001/REC-SVG-20010904/DTD/svg10.dtd">
<svg version="1.0" xmlns="http://www.w3.org/2000/svg"
 width="2048.000000pt" height="2048.000000pt" viewBox="0 0 2048.000000 2048.000000"
 preserveAspectRatio="xMidYMid meet">

<g transform="translate(0.000000,2048.000000) scale(0.100000,-0.100000)"
fill="#563d7c" stroke="none">
<path d="M0 10240 l0 -10240 10240 0 10240 0 0 10240 0 10240 -10240 0 -10240
0 0 -10240z m7262 615 c670 -1067 1253 -1997 1295 -2068 42 -70 78 -125 80
-123 2 2 -1 44 -8 92 -9 67 -13 578 -16 2067 l-4 1977 416 0 415 0 0 -2660 0
-2660 -473 0 -473 0 -1249 1971 c-1162 1831 -1323 2092 -1368 2207 -23 58 -35
46 -24 -25 6 -34 11 -915 14 -2105 l4 -2048 -416 0 -415 0 0 2660 0 2660 502
-2 502 -3 1218 -1940z m6118 1570 l0 -375 -970 0 -970 0 2 -752 3 -753 893 -3
892 -2 0 -370 0 -370 -892 -2 -893 -3 0 -785 0 -785 1028 -3 1027 -2 0 -370 0
-370 -1460 0 -1460 0 0 2660 0 2660 1400 0 1400 0 0 -375z m4260 0 l0 -375
-745 0 -745 0 0 -2285 0 -2285 -435 0 -435 0 0 2285 0 2285 -745 0 -745 0 0
375 0 375 1925 0 1925 0 0 -375z m-13867 -4040 c189 -40 363 -213 397 -394 29
-157 -9 -297 -116 -419 -115 -132 -291 -194 -481 -171 -197 25 -380 180 -427
364 -31 119 -14 270 41 365 35 59 124 152 182 190 114 73 258 96 404 65z"/>
</g>
</svg>
