<svg width="135" height="102" viewBox="0 0 135 102" fill="none" xmlns="http://www.w3.org/2000/svg">
<path d="M17.464 36.552C16.2693 36.552 15.2133 36.3173 14.296 35.848C13.4 35.3787 12.7173 34.7173 12.248 33.864C11.7787 33.032 11.576 32.0293 11.64 30.856L11.96 25.992C12.024 25.1173 11.8427 24.456 11.416 24.008C11.0107 23.56 10.3173 23.336 9.336 23.336H5.528V19.656H9.336C10.3173 19.656 11.0107 19.432 11.416 18.984C11.8427 18.536 12.024 17.8853 11.96 17.032L11.64 12.008C11.576 10.856 11.7787 9.864 12.248 9.032C12.7173 8.2 13.4 7.56 14.296 7.112C15.2133 6.664 16.2693 6.44 17.464 6.44H19.672V10.12H18.04C17.272 10.12 16.664 10.3013 16.216 10.664C15.7893 11.0267 15.5973 11.6027 15.64 12.392L15.96 17.384C16.0453 18.6427 15.672 19.656 14.84 20.424C14.008 21.192 12.8453 21.576 11.352 21.576V21.352C12.824 21.352 13.976 21.7467 14.808 22.536C15.6613 23.304 16.0453 24.328 15.96 25.608L15.64 30.6C15.6187 31.304 15.8213 31.8587 16.248 32.264C16.696 32.648 17.2933 32.84 18.04 32.84H19.672V36.552H17.464ZM31.7875 33.32C30.2728 33.32 28.9608 33.032 27.8515 32.456C26.7422 31.88 25.8782 31.0693 25.2595 30.024C24.6622 28.9787 24.3635 27.752 24.3635 26.344V16.296C24.3635 14.888 24.6622 13.6613 25.2595 12.616C25.8782 11.5707 26.7422 10.76 27.8515 10.184C28.9608 9.608 30.2728 9.32 31.7875 9.32C33.3235 9.32 34.6355 9.608 35.7235 10.184C36.8328 10.76 37.6862 11.5707 38.2835 12.616C38.9022 13.6613 39.2115 14.888 39.2115 16.296V26.344C39.2115 27.752 38.9022 28.9787 38.2835 30.024C37.6862 31.0693 36.8328 31.88 35.7235 32.456C34.6142 33.032 33.3022 33.32 31.7875 33.32ZM31.7875 29.864C32.8968 29.864 33.7822 29.544 34.4435 28.904C35.1048 28.264 35.4355 27.4107 35.4355 26.344V16.296C35.4355 15.2293 35.1048 14.376 34.4435 13.736C33.7822 13.096 32.8968 12.776 31.7875 12.776C30.6782 12.776 29.7928 13.096 29.1315 13.736C28.4702 14.376 28.1395 15.2293 28.1395 16.296V26.344C28.1395 27.4107 28.4702 28.264 29.1315 28.904C29.7928 29.544 30.6782 29.864 31.7875 29.864ZM31.7875 23.4C31.1688 23.4 30.6568 23.1973 30.2515 22.792C29.8675 22.3867 29.6755 21.864 29.6755 21.224C29.6755 20.584 29.8675 20.072 30.2515 19.688C30.6355 19.304 31.1475 19.112 31.7875 19.112C32.4275 19.112 32.9395 19.304 33.3235 19.688C33.7075 20.072 33.8995 20.584 33.8995 21.224C33.8995 21.864 33.7075 22.3867 33.3235 22.792C32.9395 23.1973 32.4275 23.4 31.7875 23.4ZM43.903 33V29.128L51.199 21.8C52.223 20.7547 52.9803 19.816 53.471 18.984C53.9617 18.1307 54.207 17.256 54.207 16.36C54.207 15.272 53.9083 14.4293 53.311 13.832C52.7137 13.2133 51.903 12.904 50.879 12.904C49.7483 12.904 48.863 13.2347 48.223 13.896C47.583 14.536 47.263 15.432 47.263 16.584H43.263C43.2843 15.0907 43.6043 13.8107 44.223 12.744C44.863 11.656 45.759 10.8133 46.911 10.216C48.063 9.61867 49.407 9.32 50.943 9.32C52.415 9.32 53.695 9.59733 54.783 10.152C55.871 10.7067 56.7137 11.4853 57.311 12.488C57.9083 13.4907 58.207 14.6853 58.207 16.072C58.207 17.5013 57.8337 18.8987 57.087 20.264C56.3617 21.608 55.1883 23.0587 53.567 24.616L48.703 29.384H58.495V33H43.903ZM70.1305 33.32C67.9758 33.32 66.2478 32.7867 64.9465 31.72C63.6452 30.632 62.9305 29.16 62.8025 27.304H66.8025C66.8878 28.1147 67.2078 28.744 67.7625 29.192C68.3385 29.6187 69.1278 29.832 70.1305 29.832C71.2398 29.832 72.0825 29.544 72.6585 28.968C73.2345 28.3707 73.5225 27.5493 73.5225 26.504V24.232C73.5225 23.1653 73.2345 22.3547 72.6585 21.8C72.0825 21.224 71.2398 20.936 70.1305 20.936C69.4478 20.936 68.8612 21.0747 68.3705 21.352C67.8798 21.6293 67.5065 22.0133 67.2505 22.504H63.3465L63.5065 9.64H76.6585V13.256H67.2825L67.2185 20.04H68.1465L67.1865 20.84C67.1865 19.8587 67.5705 19.0907 68.3385 18.536C69.1278 17.96 70.1838 17.672 71.5065 17.672C73.4052 17.6507 74.8772 18.2267 75.9225 19.4C76.9892 20.552 77.5225 22.1627 77.5225 24.232V26.504C77.5225 28.616 76.8612 30.28 75.5385 31.496C74.2372 32.712 72.4345 33.32 70.1305 33.32ZM89.35 33.32C87.814 33.32 86.4807 33.064 85.35 32.552C84.2193 32.0187 83.3447 31.272 82.726 30.312C82.1073 29.352 81.798 28.232 81.798 26.952C81.798 25.544 82.1927 24.3387 82.982 23.336C83.7713 22.3333 84.9447 21.48 86.502 20.776L90.086 19.144C90.854 18.7813 91.4513 18.2907 91.878 17.672C92.326 17.0533 92.55 16.36 92.55 15.592C92.55 14.7173 92.262 14.024 91.686 13.512C91.11 12.9787 90.3313 12.712 89.35 12.712C88.3687 12.712 87.5793 12.9787 86.982 13.512C86.406 14.0453 86.118 14.7493 86.118 15.624C86.118 16.3707 86.342 17.0533 86.79 17.672C87.238 18.2907 87.8353 18.7707 88.582 19.112L92.134 20.744C93.8193 21.4907 95.0353 22.376 95.782 23.4C96.5287 24.4027 96.902 25.5867 96.902 26.952C96.902 28.9147 96.2193 30.472 94.854 31.624C93.51 32.7547 91.6753 33.32 89.35 33.32ZM89.35 29.896C90.4593 29.896 91.334 29.608 91.974 29.032C92.6353 28.4347 92.966 27.656 92.966 26.696C92.966 25.9493 92.742 25.2453 92.294 24.584C91.846 23.9013 91.2273 23.3787 90.438 23.016L86.63 21.256C85.1793 20.5733 84.07 19.7627 83.302 18.824C82.5553 17.864 82.182 16.7227 82.182 15.4C82.182 14.2053 82.47 13.1493 83.046 12.232C83.622 11.3147 84.4433 10.6 85.51 10.088C86.598 9.576 87.878 9.32 89.35 9.32C90.822 9.32 92.0807 9.576 93.126 10.088C94.1927 10.6 95.014 11.3147 95.59 12.232C96.1873 13.1493 96.486 14.2053 96.486 15.4C96.486 16.744 96.1127 17.8853 95.366 18.824C94.6193 19.7627 93.5207 20.5733 92.07 21.256L88.23 23.048C87.462 23.3893 86.854 23.8907 86.406 24.552C85.958 25.2133 85.734 25.9173 85.734 26.664C85.734 27.624 86.054 28.4027 86.694 29C87.3553 29.5973 88.2407 29.896 89.35 29.896ZM101.466 36.552V32.84H103.098C103.844 32.84 104.442 32.648 104.89 32.264C105.338 31.8587 105.54 31.304 105.498 30.6L105.178 25.608C105.092 24.328 105.466 23.304 106.298 22.536C107.151 21.7467 108.314 21.352 109.786 21.352V21.576C108.314 21.576 107.151 21.192 106.298 20.424C105.466 19.656 105.092 18.6427 105.178 17.384L105.498 12.392C105.54 11.6027 105.338 11.0267 104.89 10.664C104.463 10.3013 103.866 10.12 103.098 10.12H101.466V6.44H103.674C104.868 6.44 105.914 6.664 106.81 7.112C107.727 7.56 108.42 8.2 108.89 9.032C109.359 9.864 109.562 10.856 109.498 12.008L109.178 17.032C109.114 17.8853 109.295 18.536 109.722 18.984C110.148 19.432 110.842 19.656 111.802 19.656H115.61V23.336H111.802C110.842 23.336 110.148 23.56 109.722 24.008C109.295 24.456 109.114 25.1173 109.178 25.992L109.498 30.856C109.562 32.0293 109.359 33.032 108.89 33.864C108.42 34.7173 107.727 35.3787 106.81 35.848C105.914 36.3173 104.868 36.552 103.674 36.552H101.466Z" fill="url(#paint0_linear_1_21)"/>
<path d="M3.072 82V37.2H11.84V74.576H25.152V82H3.072ZM45.8295 61.52H45.5735H45.8295L49.2215 47.504L51.9735 37.2H59.9735L62.8535 82H54.4695L53.2535 57.552H52.9335L48.3255 75.6H43.0775L38.4695 57.552H38.1495L36.9335 82H28.5495L31.4295 37.2H39.4295L42.1815 47.504L45.5735 61.52H45.8295ZM72.1055 37.2H87.4655V44.88H75.1775L74.9855 45.264L85.2255 63.952C87.3162 67.7067 88.3615 70.5653 88.3615 72.528C88.3615 76.8373 86.9322 79.9947 84.0735 82H67.1135V74.576H80.3615L80.5535 74.192L69.0335 53.52C67.3695 50.5333 66.5375 48.1013 66.5375 46.224C66.5375 41.7867 68.3935 38.7787 72.1055 37.2ZM92.822 82V37.2H111.062C113.153 37.968 115.009 39.312 116.63 41.232C118.251 43.152 119.062 45.4773 119.062 48.208C119.062 53.0293 117.483 56.4 114.326 58.32V58.576C118.251 60.752 120.214 64.1653 120.214 68.816C120.214 74.1493 117.505 78.544 112.086 82H92.822ZM101.526 55.696H107.862C109.739 54.544 110.678 52.7947 110.678 50.448C110.678 48.1013 109.803 46.2453 108.054 44.88H101.526V55.696ZM101.526 74.576H108.118C108.886 74.0213 109.569 73.1467 110.166 71.952C110.806 70.7573 111.126 69.5627 111.126 68.368C111.126 67.1733 110.87 66.0853 110.358 65.104C109.846 64.1227 109.206 63.3973 108.438 62.928H101.526V74.576Z" fill="url(#paint1_linear_1_21)"/>
<defs>
<linearGradient id="paint0_linear_1_21" x1="-2" y1="23" x2="121" y2="21.5" gradientUnits="userSpaceOnUse">
<stop offset="0.0112643" stop-color="#15B1F6"/>
<stop offset="1" stop-color="#D420B2"/>
</linearGradient>
<linearGradient id="paint1_linear_1_21" x1="-4.62121" y1="53.94" x2="109.073" y2="53.2201" gradientUnits="userSpaceOnUse">
<stop offset="0.0112643" stop-color="#15B1F6"/>
<stop offset="1" stop-color="#D420B2"/>
</linearGradient>
</defs>
</svg>
