<?xml version="1.0" standalone="no"?>
<!DOCTYPE svg PUBLIC "-//W3C//DTD SVG 20010904//EN"
 "http://www.w3.org/TR/2001/REC-SVG-20010904/DTD/svg10.dtd">
<svg version="1.0" xmlns="http://www.w3.org/2000/svg"
 width="512.000000pt" height="512.000000pt" viewBox="0 0 512.000000 512.000000"
 preserveAspectRatio="xMidYMid meet">

<g transform="translate(0.000000,512.000000) scale(0.100000,-0.100000)"
fill="#000000" stroke="none">
<path d="M2230 4286 c0 -2 17 -15 38 -29 75 -49 181 -148 235 -219 100 -131
147 -261 147 -407 0 -110 -21 -193 -80 -316 -67 -142 -153 -256 -325 -434 -82
-85 -143 -151 -135 -146 8 5 33 21 55 35 90 61 394 204 665 312 442 177 1065
347 1434 392 58 7 109 15 112 19 12 11 -27 60 -125 157 -161 161 -332 262
-584 345 -173 57 -297 84 -720 155 -384 64 -511 88 -631 120 -86 22 -86 22
-86 16z m233 -78 c26 -8 46 -23 59 -42 19 -32 61 -156 55 -163 -2 -2 -26 24
-53 58 -27 34 -74 83 -104 110 -54 48 -54 49 -26 49 16 0 47 -5 69 -12z m287
-59 c83 -16 130 -29 130 -37 0 -4 -18 -17 -40 -30 -23 -13 -77 -52 -121 -88
-49 -39 -81 -59 -83 -52 -3 7 -16 54 -29 103 -14 50 -29 98 -33 109 -7 17 -3
18 57 12 35 -4 89 -12 119 -17z m194 -193 c7 -78 8 -136 3 -136 -15 0 -241 72
-249 79 -13 12 74 99 151 151 41 27 76 48 79 46 2 -3 10 -66 16 -140z m141
134 c100 -12 233 -38 254 -50 11 -6 0 -15 -40 -35 -75 -38 -184 -109 -242
-157 -27 -22 -50 -38 -53 -35 -5 5 -43 246 -44 275 0 15 10 15 125 2z m318
-102 c-18 -100 -95 -296 -122 -312 -5 -4 -37 11 -71 33 -34 22 -83 47 -111 56
-27 9 -49 20 -49 24 0 7 95 81 165 129 39 26 177 102 187 102 4 0 5 -15 1 -32z
m153 -8 c143 -38 318 -101 307 -110 -4 -4 -64 -26 -133 -49 -69 -24 -183 -70
-255 -102 -71 -33 -136 -63 -142 -66 -7 -3 0 24 16 58 36 81 67 179 76 247 4
28 10 52 13 52 4 0 57 -13 118 -30z m357 -171 c-18 -32 -294 -403 -317 -427
-10 -10 -19 -3 -48 40 -41 61 -94 119 -158 170 l-44 36 59 27 c102 46 234 94
380 140 77 24 141 44 143 45 2 0 -5 -14 -15 -31z m-1115 -14 c56 -16 102 -32
102 -36 0 -6 -213 -200 -216 -196 -1 1 -4 62 -7 135 -4 101 -3 133 6 129 7 -2
58 -17 115 -32z m1314 -76 c32 -23 93 -78 136 -123 l77 -81 -60 -8 c-140 -17
-369 -60 -492 -91 -73 -19 -133 -32 -133 -30 0 2 29 39 66 82 36 42 106 138
157 214 l92 136 49 -28 c28 -16 76 -47 108 -71z m-1229 -157 l-68 -170 -39 34
c-21 18 -51 36 -67 39 -16 4 -29 10 -29 15 0 9 263 260 268 255 2 -1 -28 -79
-65 -173z m177 143 c44 -16 130 -65 130 -76 0 -6 -344 -249 -353 -249 -4 0 7
28 22 63 93 202 131 277 144 277 8 0 34 -7 57 -15z m14 -334 c-93 -121 -172
-220 -176 -221 -5 0 -8 12 -8 28 0 15 -7 52 -16 82 -29 99 -39 86 171 219 104
66 191 118 194 116 2 -2 -73 -103 -165 -224z m359 100 c64 -54 111 -108 100
-114 -19 -11 -547 -177 -554 -175 -5 2 61 90 147 195 l157 193 48 -26 c26 -15
72 -47 102 -73z m-734 -75 c60 -32 58 -41 -21 -94 -40 -26 -79 -52 -85 -56 -7
-4 -1 17 12 46 14 29 28 68 31 86 7 35 21 39 63 18z m135 -107 c9 -22 19 -67
23 -98 l6 -58 -49 -18 c-100 -37 -218 -87 -287 -121 l-71 -36 34 38 c68 79
314 334 321 334 4 0 14 -18 23 -41z m-246 -126 c10 -31 10 -31 -61 -80 -139
-93 -136 -93 -72 -18 33 39 71 87 84 108 25 41 32 40 49 -10z"/>
<path d="M3160 1825 c0 -19 2 -35 4 -35 2 0 6 16 8 35 2 19 0 35 -4 35 -4 0
-8 -16 -8 -35z"/>
<path d="M3201 1828 c1 -31 1 -32 9 -8 4 14 8 19 9 11 1 -8 3 -12 6 -9 8 7 -5
38 -16 38 -5 0 -9 -15 -8 -32z"/>
<path d="M3256 1852 c-3 -5 -1 -22 4 -38 8 -29 8 -29 9 9 1 36 -3 45 -13 29z"/>
<path d="M3237 1813 c-4 -3 -7 -11 -7 -17 0 -6 5 -5 12 2 6 6 9 14 7 17 -3 3
-9 2 -12 -2z"/>
<path d="M0 1665 c0 -138 1 -145 20 -145 19 0 20 7 21 113 l0 112 41 -113 c31
-87 44 -112 57 -110 11 2 29 41 56 118 l40 115 3 -117 c2 -96 5 -118 17 -118
13 0 15 24 15 145 0 144 0 145 -23 145 -19 0 -27 -14 -61 -112 -21 -62 -42
-116 -45 -120 -4 -5 -25 46 -46 112 -38 115 -40 120 -67 120 l-28 0 0 -145z"/>
<path d="M330 1791 c0 -15 6 -21 21 -21 14 0 19 5 17 17 -5 26 -38 29 -38 4z"/>
<path d="M1426 1794 c-9 -8 -16 -26 -16 -40 0 -15 -6 -24 -15 -24 -8 0 -15 -7
-15 -15 0 -8 7 -15 15 -15 12 0 15 -17 15 -90 0 -83 1 -90 20 -90 19 0 20 7
20 90 0 83 1 90 20 90 11 0 20 7 20 15 0 9 -9 15 -21 15 -30 0 -22 44 9 48 12
2 22 10 22 18 0 19 -54 18 -74 -2z"/>
<path d="M1538 1789 c-10 -6 -18 -21 -18 -34 0 -14 -4 -25 -10 -25 -5 0 -10
-7 -10 -15 0 -8 5 -15 10 -15 6 0 10 -33 10 -78 0 -86 8 -102 52 -102 20 0 26
4 22 15 -4 8 -12 15 -20 15 -11 0 -14 18 -14 75 0 60 3 75 15 75 8 0 15 7 15
15 0 8 -6 15 -14 15 -10 0 -16 13 -18 34 -3 30 -5 33 -20 25z"/>
<path d="M1706 1766 c19 -8 36 -26 42 -43 7 -18 11 -22 11 -10 1 23 -43 67
-66 67 -11 -1 -6 -6 13 -14z"/>
<path d="M1640 1755 c-19 -22 -8 -25 13 -3 9 10 13 18 8 18 -5 0 -14 -7 -21
-15z"/>
<path d="M1671 1708 c1 -24 3 -35 6 -25 2 9 7 17 10 17 3 0 12 -8 19 -17 7
-10 14 -13 14 -6 0 6 -5 15 -10 18 -8 5 -7 11 0 20 15 18 4 35 -21 35 -16 0
-19 -7 -18 -42z m39 23 c0 -5 -7 -11 -15 -15 -9 -3 -15 0 -15 9 0 8 7 15 15
15 8 0 15 -4 15 -9z"/>
<path d="M330 1625 c0 -98 1 -105 20 -105 19 0 20 7 20 105 0 98 -1 105 -20
105 -19 0 -20 -7 -20 -105z"/>
<path d="M439 1704 c-19 -20 -24 -36 -24 -79 0 -70 29 -105 87 -105 56 0 113
58 73 74 -10 4 -19 -2 -25 -18 -10 -28 -40 -38 -72 -22 -18 9 -24 21 -26 58
-2 26 2 56 8 68 14 27 66 27 88 0 11 -13 22 -17 30 -12 10 7 8 15 -8 35 -30
38 -96 38 -131 1z"/>
<path d="M620 1625 c0 -98 1 -105 20 -105 18 0 20 7 20 79 0 83 11 105 46 99
11 -2 20 4 22 15 3 13 -3 17 -27 17 -18 0 -34 -7 -40 -17 -10 -17 -10 -17 -11
0 0 9 -7 17 -15 17 -12 0 -15 -18 -15 -105z"/>
<path d="M783 1715 c-33 -23 -48 -79 -34 -126 14 -47 44 -69 91 -69 46 0 76
21 90 66 15 46 0 106 -33 129 -27 19 -86 19 -114 0z m99 -32 c24 -22 25 -94 1
-115 -31 -26 -51 -28 -77 -7 -50 40 -27 139 32 139 14 0 34 -7 44 -17z"/>
<path d="M990 1710 c-40 -40 -19 -77 58 -99 62 -18 69 -49 15 -65 -17 -5 -29
0 -48 19 -26 26 -45 26 -45 0 0 -23 42 -45 86 -45 34 0 47 5 63 26 12 15 21
33 21 40 0 21 -28 43 -73 55 -52 15 -67 26 -60 45 7 19 72 19 79 -1 4 -8 12
-15 19 -15 24 0 26 19 5 40 -27 27 -93 27 -120 0z"/>
<path d="M1209 1717 c-40 -30 -51 -104 -24 -156 17 -33 33 -41 85 -41 53 0 90
43 90 105 0 64 -37 105 -93 105 -23 0 -49 -6 -58 -13z m107 -53 c12 -29 13
-43 3 -71 -28 -85 -128 -45 -115 45 7 46 23 62 63 62 30 0 36 -5 49 -36z"/>
<path d="M1728 1668 c-10 -10 -14 -18 -9 -18 10 0 36 29 30 34 -2 1 -12 -6
-21 -16z"/>
<path d="M146 1385 c-106 -37 -155 -119 -134 -221 14 -63 63 -108 188 -174
118 -62 150 -94 150 -151 0 -79 -83 -121 -199 -100 -35 7 -81 21 -102 32 -21
10 -41 19 -44 19 -3 0 -5 -22 -5 -48 0 -58 12 -66 126 -84 227 -35 383 103
303 269 -25 52 -56 77 -180 144 -112 61 -137 82 -145 124 -15 80 61 132 180
123 35 -3 79 -13 97 -22 17 -9 34 -16 36 -16 1 0 3 22 3 50 0 48 -1 49 -37 59
-54 15 -191 13 -237 -4z"/>
<path d="M785 1387 c-97 -32 -158 -87 -202 -182 -26 -55 -28 -69 -28 -180 0
-109 2 -125 26 -176 51 -109 142 -179 252 -195 43 -6 57 -15 118 -76 84 -84
138 -110 225 -110 34 -1 67 3 73 6 6 4 11 25 11 46 l0 39 -53 -6 c-36 -4 -64
0 -90 11 -37 15 -127 82 -127 95 0 3 21 15 47 25 140 58 222 235 193 420 -20
127 -79 214 -182 267 -53 28 -200 36 -263 16z m186 -79 c123 -36 191 -192 159
-362 -21 -115 -87 -186 -187 -205 -172 -33 -296 85 -297 284 0 98 25 167 83
225 66 65 151 86 242 58z"/>
<path d="M2280 1391 c-174 -53 -211 -241 -67 -340 23 -15 79 -47 125 -71 45
-23 93 -56 107 -72 27 -32 33 -84 15 -119 -32 -59 -173 -72 -274 -26 -32 15
-60 27 -62 27 -2 0 -4 -22 -4 -48 0 -57 10 -64 116 -83 230 -40 394 100 313
268 -23 48 -75 89 -194 152 -97 52 -123 75 -131 116 -9 47 17 89 66 109 66 26
140 20 233 -19 15 -6 17 -1 17 43 0 50 0 51 -37 61 -43 12 -185 13 -223 2z"/>
<path d="M1380 1025 l0 -365 190 0 190 0 0 45 0 45 -145 0 -145 0 0 320 0 320
-45 0 -45 0 0 -365z"/>
<path d="M2802 1169 c-86 -43 -132 -131 -132 -252 0 -92 15 -139 63 -193 30
-34 51 -48 95 -60 67 -20 152 -14 218 15 41 19 44 22 44 60 l0 40 -49 -24
c-64 -33 -160 -35 -209 -5 -34 21 -71 87 -72 128 l0 22 181 0 181 0 -4 73 c-4
85 -27 137 -82 181 -34 28 -46 31 -114 34 -63 2 -85 -1 -120 -19z m167 -64
c31 -16 61 -69 61 -109 l0 -26 -135 0 c-77 0 -135 4 -135 9 0 39 55 115 95
131 32 14 83 11 114 -5z"/>
<path d="M3405 1168 c-15 -12 -36 -35 -46 -52 l-19 -31 0 48 0 47 -45 0 -45 0
0 -260 0 -260 45 0 45 0 0 163 c0 136 3 169 19 203 28 61 66 87 119 81 l42 -5
0 44 0 44 -44 0 c-29 0 -52 -7 -71 -22z"/>
<path d="M4259 1170 c-92 -49 -146 -160 -136 -279 9 -108 47 -175 120 -213 57
-30 192 -31 252 -2 36 17 40 23 43 60 l3 42 -48 -25 c-41 -21 -59 -24 -120
-21 -60 3 -76 7 -98 28 -34 32 -47 55 -55 103 l-7 37 185 0 185 0 -6 71 c-8
94 -46 164 -107 196 -56 30 -158 31 -211 3z m185 -79 c23 -22 50 -97 40 -113
-3 -4 -64 -8 -136 -8 l-130 0 6 32 c9 43 31 75 69 99 42 27 117 21 151 -10z"/>
<path d="M4863 1170 c-18 -10 -41 -36 -52 -57 l-20 -38 -1 53 0 52 -45 0 -45
0 0 -260 0 -260 44 0 44 0 4 168 c3 138 7 174 22 206 27 54 70 79 124 72 l42
-6 0 45 0 45 -42 0 c-25 0 -57 -8 -75 -20z"/>
<path d="M3679 923 l97 -258 45 -3 45 -3 97 243 c53 134 99 251 103 261 6 16
1 18 -42 15 l-49 -3 -29 -80 c-15 -44 -50 -143 -77 -220 -27 -77 -49 -131 -49
-119 0 12 -31 111 -69 220 l-69 199 -50 3 -50 3 97 -258z"/>
<path d="M5076 1173 c-15 -4 -16 -7 -5 -14 10 -6 11 -11 3 -16 -9 -6 -7 -12 4
-22 13 -12 14 -12 10 0 -3 8 -1 24 3 37 5 12 7 21 6 21 -1 -1 -11 -4 -21 -6z"/>
<path d="M5112 1140 c0 -14 2 -19 5 -12 2 6 2 18 0 25 -3 6 -5 1 -5 -13z"/>
</g>
</svg>
